<?xml version="1.0" encoding="iso-8859-1"?>
<!-- Generator: Adobe Illustrator 21.0.0, SVG Export Plug-In . SVG Version: 6.00 Build 0)  -->
<svg version="1.1" id="Capa_1" xmlns="http://www.w3.org/2000/svg" xmlns:xlink="http://www.w3.org/1999/xlink" x="0px" y="0px"
	 viewBox="0 0 512 512" style="enable-background:new 0 0 512 512;" xml:space="preserve">
<g>
	<g>
		<path d="M497,210.972h-78.942l50.346-29.067c7.2-4.157,9.645-13.386,5.448-20.563l-90-153.885
			c-4.148-7.093-13.232-9.528-20.373-5.461l-259.808,148c-7.225,4.116-9.723,13.333-5.565,20.534l23.349,40.442H15
			c-8.284,0-15,6.716-15,15v271c0,8.284,6.716,15,15,15h482c8.284,0,15-6.716,15-15v-271C512,217.688,505.284,210.972,497,210.972z
			 M365.442,35.404l74.898,128.063L254.134,270.972h-63.398L131.63,168.596L365.442,35.404z M482,481.972H30v-121h452V481.972z
			 M482,330.972H30v-90h108.776l17.32,30H106c-8.284,0-15,6.716-15,15s6.716,15,15,15c2.088,0,293.396,0,300,0
			c8.284,0,15-6.716,15-15s-6.716-15-15-15h-91.865l51.962-30H482V330.972z"/>
	</g>
</g>
<g>
	<g>
		<path d="M320.744,91.742c-7.861-2.621-16.354,1.628-18.974,9.487l-22.325,66.975l-12.838-12.838
			c-5.857-5.858-15.355-5.858-21.213,0c-5.858,5.858-5.858,15.355,0,21.213l30,30c7.888,7.888,21.317,4.696,24.837-5.863l30-90
			C332.851,102.857,328.603,94.362,320.744,91.742z"/>
	</g>
</g>
<g>
</g>
<g>
</g>
<g>
</g>
<g>
</g>
<g>
</g>
<g>
</g>
<g>
</g>
<g>
</g>
<g>
</g>
<g>
</g>
<g>
</g>
<g>
</g>
<g>
</g>
<g>
</g>
<g>
</g>
</svg>
